<?xml version="1.0" standalone="no"?>
<!DOCTYPE svg PUBLIC "-//W3C//DTD SVG 20010904//EN"
 "http://www.w3.org/TR/2001/REC-SVG-20010904/DTD/svg10.dtd">
<svg version="1.0" xmlns="http://www.w3.org/2000/svg"
 width="64.000000pt" height="64.000000pt" viewBox="0 0 64.000000 64.000000"
 preserveAspectRatio="xMidYMid meet">

<g transform="translate(0.000000,64.000000) scale(0.100000,-0.100000)"
fill="#000000" stroke="none">
<path d="M107 550 c-31 -25 -47 -75 -47 -148 0 -45 -3 -55 -20 -59 -14 -4 -20
-14 -20 -32 0 -15 8 -31 20 -39 16 -9 20 -23 21 -65 0 -74 18 -117 59 -145 35
-23 35 -23 44 -3 7 15 5 26 -7 39 -24 27 -21 42 9 42 25 0 25 1 19 54 -4 29
-10 68 -14 87 -7 30 -9 25 -19 -45 -7 -44 -15 -82 -17 -85 -3 -2 -5 21 -5 51
0 41 -5 62 -21 81 -20 26 -20 27 -1 48 15 15 21 39 24 94 2 54 8 79 22 94 20
22 16 51 -7 51 -8 0 -26 -9 -40 -20z"/>
<path d="M476 555 c-3 -9 3 -24 14 -35 16 -16 20 -34 20 -89 0 -54 4 -74 21
-95 l20 -26 -20 -26 c-12 -15 -21 -33 -21 -41 0 -17 -91 151 -95 176 -3 19
-25 16 -42 -6 -23 -30 -14 -75 32 -160 25 -45 45 -90 45 -98 0 -29 34 -12 49
25 9 24 10 23 10 -11 1 -22 -7 -46 -19 -62 -20 -25 -18 -57 4 -57 22 0 58 33
72 66 8 18 14 58 14 89 0 44 4 57 20 67 11 7 20 24 20 38 0 14 -9 31 -20 38
-16 10 -20 23 -20 73 0 33 -5 70 -11 82 -30 58 -80 86 -93 52z"/>
<path d="M177 408 c-2 -18 4 -85 14 -148 10 -63 19 -116 19 -117 0 -2 11 -3
25 -3 30 0 30 -1 5 160 -11 69 -20 128 -20 133 0 4 -8 7 -19 7 -13 0 -20 -9
-24 -32z"/>
<path d="M253 424 c-7 -19 1 -125 17 -216 11 -62 14 -68 36 -68 17 0 24 6 24
20 0 21 -26 206 -36 253 -6 29 -31 37 -41 11z"/>
<path d="M432 432 c2 -4 17 -32 33 -61 l30 -55 3 48 c4 65 -2 76 -39 76 -17 0
-29 -3 -27 -8z"/>
<path d="M360 200 l0 -60 35 0 c19 0 35 2 35 5 0 8 -61 115 -66 115 -2 0 -4
-27 -4 -60z"/>
</g>
</svg>
